<?xml version="1.0" encoding="UTF-8"?>
<svg version="1.1" xmlns="http://www.w3.org/2000/svg" width="187" height="195">
<path d="M0 0 C1.25588425 -0.00525696 1.25588425 -0.00525696 2.53713989 -0.01062012 C5.28160115 -0.01935789 8.02580016 -0.0136106 10.77026367 -0.00683594 C12.70489043 -0.00818626 14.63951685 -0.01012983 16.57414246 -0.01263428 C20.62644689 -0.01557601 24.67866292 -0.01132372 28.73095703 -0.00195312 C33.86635676 0.00935655 39.0015454 0.0029301 44.13693714 -0.00909805 C48.13611871 -0.01641482 52.13525244 -0.01398296 56.13443565 -0.00884247 C58.02421787 -0.00752849 59.91400475 -0.00907249 61.80378151 -0.01380157 C71.58623446 -0.03288986 81.26253467 0.21106221 91.00341797 1.16601562 C92.22357841 1.28532251 92.22357841 1.28532251 93.46838856 1.40703964 C107.80003089 2.95822534 122.27817748 8.32862766 132.12573242 19.25878906 C142.83394025 33.84522105 144.98124337 48.06209677 142.59448242 65.78222656 C141.46380312 72.815586 139.95968681 79.1986676 136.12573242 85.25878906 C133.02966765 86.80682145 129.7574227 86.41493008 126.35888672 86.41992188 C125.55707977 86.42488678 124.75527283 86.42985168 123.9291687 86.43496704 C121.26942087 86.44960416 118.60973271 86.45639362 115.94995117 86.46191406 C114.10390725 86.46766473 112.25786334 86.47342247 110.41181946 86.47918701 C106.53723878 86.48970174 102.66267888 86.49554116 98.78808594 86.49902344 C93.82471489 86.50450581 88.8616185 86.52852632 83.89833355 86.55699539 C80.08333029 86.57562617 76.26839308 86.58082763 72.45334816 86.58235931 C70.62372144 86.58538594 68.79409589 86.59341479 66.96451378 86.60654449 C64.40305121 86.62361248 61.84225819 86.6217229 59.28076172 86.61523438 C58.52576889 86.62444916 57.77077606 86.63366394 56.99290466 86.64315796 C51.58793381 86.60030073 48.31390777 85.43129729 44.48901367 81.63378906 C42.42375692 78.03586326 41.41092739 74.24230818 40.31323242 70.25878906 C40.0715332 69.45183594 39.82983398 68.64488281 39.58081055 67.81347656 C39.36231445 67.03230469 39.14381836 66.25113281 38.91870117 65.44628906 C38.71784912 64.73859375 38.51699707 64.03089844 38.31005859 63.30175781 C38.12573242 61.25878906 38.12573242 61.25878906 40.12573242 57.25878906 C64.87573242 56.92878906 89.62573242 56.59878906 115.12573242 56.25878906 C115.12573242 48.35502988 113.56974855 43.24740902 108.87573242 36.94628906 C102.00397952 30.23071236 94.61794538 29.10529474 85.31811523 29.14526367 C84.42995621 29.14511765 83.54179718 29.14497162 82.62672424 29.14482117 C79.69407704 29.14551726 76.76149352 29.15329549 73.82885742 29.16113281 C71.79433222 29.16299807 69.75980657 29.16442146 67.72528076 29.16542053 C62.37248493 29.16923722 57.01971626 29.1790603 51.66693115 29.19012451 C46.20398323 29.20035684 40.74103092 29.20492206 35.27807617 29.20996094 C24.56061632 29.22068331 13.84317663 29.23774958 3.12573242 29.25878906 C3.6228472 34.31935035 4.21399907 39.23859559 5.42919922 44.18652344 C5.69004807 45.25793579 5.95089691 46.32934814 6.21965027 47.43322754 C6.50189957 48.56160034 6.78414886 49.68997314 7.07495117 50.85253906 C7.51760063 52.63259338 7.51760063 52.63259338 7.9691925 54.4486084 C8.59377205 56.94721411 9.22178106 59.44496477 9.85302734 61.94189453 C10.80919735 65.74274931 11.74012015 69.54924535 12.6706543 73.35644531 C13.28303604 75.79303345 13.8969189 78.22924491 14.51245117 80.66503906 C14.92064339 82.35759827 14.92064339 82.35759827 15.33708191 84.08435059 C17.35627294 91.90543063 20.04957933 99.25912744 26.75854492 104.19628906 C27.5809668 104.54691406 28.40338867 104.89753906 29.25073242 105.25878906 C30.49209961 105.81566406 30.49209961 105.81566406 31.75854492 106.38378906 C35.29831966 107.69222065 38.43656486 108.38203751 42.21331787 108.41700745 C43.01816116 108.42679626 43.82300446 108.43658508 44.65223694 108.44667053 C45.52617599 108.45242599 46.40011505 108.45818146 47.30053711 108.46411133 C48.69129707 108.47896072 48.69129707 108.47896072 50.1101532 108.49411011 C53.17261203 108.52567956 56.23508636 108.5504646 59.29760742 108.57519531 C61.42181805 108.59576877 63.54602462 108.61676534 65.67022705 108.63816833 C71.25971184 108.69334855 76.84923332 108.74277573 82.43878174 108.79101562 C88.14305892 108.84126019 93.84728284 108.89693084 99.55151367 108.95214844 C110.74287442 109.05968049 121.93428142 109.1611365 133.12573242 109.25878906 C135.30807242 113.62346905 134.2690652 118.38001033 132.93823242 122.88378906 C131.45673373 126.99285147 129.52343272 129.44118394 126.12573242 132.25878906 C125.50698242 132.81566406 124.88823242 133.37253906 124.25073242 133.94628906 C119.07138624 137.145297 113.49687041 137.51028399 107.54492188 137.51757812 C106.82190384 137.52108276 106.0988858 137.5245874 105.35395813 137.52819824 C102.98220996 137.53694335 100.61076449 137.53118903 98.23901367 137.52441406 C96.57382653 137.52576352 94.90863978 137.52770639 93.24345398 137.5302124 C89.75764201 137.53315453 86.2719328 137.52889814 82.78613281 137.51953125 C78.34938191 137.50818173 73.91287423 137.51467332 69.47613239 137.52667618 C66.03657757 137.53395753 62.59707886 137.53157753 59.1575222 137.52642059 C57.52348997 137.52509906 55.88945241 137.52667849 54.25542641 137.5313797 C34.28248322 137.57621137 17.48785958 134.99791607 2.37573242 120.94628906 C-11.32915324 106.37278389 -14.02743245 84.04799474 -18.43676758 65.32128906 C-19.28583459 61.74319915 -20.13679625 58.1655642 -20.98812866 54.5880127 C-21.53482255 52.28801544 -22.07995715 49.98764693 -22.6234436 47.68688965 C-23.76961347 42.84332408 -24.92574823 38.00481223 -26.16674805 33.18457031 C-26.3569603 32.44476425 -26.54717255 31.70495819 -26.7431488 30.94273376 C-27.23114688 29.06283636 -27.72791826 27.18522204 -28.22558594 25.30786133 C-29.4752605 19.4338735 -28.92830455 15.28878619 -26.18676758 10.00878906 C-18.72644228 1.13705087 -11.22232903 -0.05912411 0 0 Z " fill="#33C758" transform="translate(34.874267578125,6.7412109375)"/>
<path d="M0 0 C4.55466759 1.70709232 7.2655816 3.88652694 9.9375 7.9375 C12.01098511 13.9140159 12.32938099 17.85651136 10.15625 23.8125 C7.72413078 28.41380664 3.87979543 31.37340152 -1 33 C-7.55694743 33.77514301 -11.65584898 32.87712917 -17 29 C-21.8865993 23.59902183 -22.35439768 20.14182896 -22.27734375 12.984375 C-21.77970509 7.62950268 -19.24904972 5.18659723 -15.5 1.625 C-10.30626627 -0.78637637 -5.62709989 -0.84812122 0 0 Z " fill="#33C758" transform="translate(137,154)"/>
<path d="M0 0 C4.46278891 3.55201566 6.65413787 6.54107585 7.44140625 12.125 C7.69153028 18.06342849 7.18263108 21.87194935 3.0625 26.4375 C-1.68361798 30.72058208 -5.33601683 31.80010059 -11.58984375 31.71875 C-16.5346577 31.12635964 -19.80176192 28.60393371 -23.25 25.0625 C-26.35795307 20.22790633 -27.49142443 16.24155296 -26.5390625 10.4609375 C-25.11021381 5.6548101 -22.29048537 2.43613206 -18.3125 -0.5 C-12.32359534 -2.38539591 -5.75852264 -2.87926132 0 0 Z " fill="#33C758" transform="translate(66.9375,155.5625)"/>
</svg>
